<mxfile host="Electron" modified="2023-09-22T21:36:26.587Z" agent="Mozilla/5.0 (Windows NT 10.0; Win64; x64) AppleWebKit/537.36 (KHTML, like Gecko) draw.io/21.7.5 Chrome/114.0.5735.289 Electron/25.8.1 Safari/537.36" etag="ODZNwNo6LQu4g7UkGWuX" version="21.7.5" type="device">
  <diagram name="Page-1" id="LFCv-sM07RL9QCs5LoBt">
    <mxGraphModel dx="1434" dy="836" grid="1" gridSize="10" guides="1" tooltips="1" connect="1" arrows="1" fold="1" page="1" pageScale="1" pageWidth="850" pageHeight="1100" math="0" shadow="0">
      <root>
        <mxCell id="0" />
        <mxCell id="1" parent="0" />
        <mxCell id="w81ejf7eT8TpBvamM4rY-1" value="" style="endArrow=classic;startArrow=classic;html=1;rounded=0;entryX=0.5;entryY=1;entryDx=0;entryDy=0;exitX=0.5;exitY=0;exitDx=0;exitDy=0;fillColor=#d5e8d4;strokeColor=#000000;" edge="1" parent="1" target="w81ejf7eT8TpBvamM4rY-4">
          <mxGeometry width="50" height="50" relative="1" as="geometry">
            <mxPoint x="385" y="320" as="sourcePoint" />
            <mxPoint x="350" y="240" as="targetPoint" />
          </mxGeometry>
        </mxCell>
        <mxCell id="w81ejf7eT8TpBvamM4rY-2" value="" style="group" vertex="1" connectable="0" parent="1">
          <mxGeometry x="275" y="200" width="220" height="30" as="geometry" />
        </mxCell>
        <mxCell id="w81ejf7eT8TpBvamM4rY-3" value="" style="rounded=1;whiteSpace=wrap;html=1;rotation=90;" vertex="1" parent="w81ejf7eT8TpBvamM4rY-2">
          <mxGeometry x="100" y="-95" width="20" height="220" as="geometry" />
        </mxCell>
        <mxCell id="w81ejf7eT8TpBvamM4rY-4" value="Antenna" style="text;html=1;strokeColor=none;fillColor=none;align=center;verticalAlign=middle;whiteSpace=wrap;rounded=0;" vertex="1" parent="w81ejf7eT8TpBvamM4rY-2">
          <mxGeometry x="80" width="60" height="30" as="geometry" />
        </mxCell>
        <mxCell id="w81ejf7eT8TpBvamM4rY-5" value="27.1 cm" style="text;html=1;strokeColor=none;fillColor=none;align=center;verticalAlign=middle;whiteSpace=wrap;rounded=0;" vertex="1" parent="1">
          <mxGeometry x="395" y="260" width="60" height="30" as="geometry" />
        </mxCell>
        <mxCell id="w81ejf7eT8TpBvamM4rY-6" value="" style="endArrow=classic;startArrow=classic;html=1;rounded=0;strokeColor=#CCCC00;" edge="1" parent="1">
          <mxGeometry width="50" height="50" relative="1" as="geometry">
            <mxPoint x="384.5" y="400" as="sourcePoint" />
            <mxPoint x="384.5" y="350" as="targetPoint" />
          </mxGeometry>
        </mxCell>
        <mxCell id="w81ejf7eT8TpBvamM4rY-7" value="5.5 cm" style="text;html=1;strokeColor=none;fillColor=none;align=center;verticalAlign=middle;whiteSpace=wrap;rounded=0;" vertex="1" parent="1">
          <mxGeometry x="395" y="360" width="60" height="30" as="geometry" />
        </mxCell>
        <mxCell id="w81ejf7eT8TpBvamM4rY-8" value="" style="endArrow=classic;startArrow=classic;html=1;rounded=0;" edge="1" parent="1">
          <mxGeometry width="50" height="50" relative="1" as="geometry">
            <mxPoint x="320" y="400" as="sourcePoint" />
            <mxPoint x="320" y="230" as="targetPoint" />
          </mxGeometry>
        </mxCell>
        <mxCell id="w81ejf7eT8TpBvamM4rY-9" value="30.6 cm" style="text;html=1;strokeColor=none;fillColor=none;align=center;verticalAlign=middle;whiteSpace=wrap;rounded=0;" vertex="1" parent="1">
          <mxGeometry x="260" y="290" width="60" height="30" as="geometry" />
        </mxCell>
        <mxCell id="w81ejf7eT8TpBvamM4rY-10" value="Legend" style="shape=table;startSize=30;container=1;collapsible=0;childLayout=tableLayout;fontSize=14;align=left;verticalAlign=top;fillColor=none;strokeColor=none;fontColor=#4D4D4D;fontStyle=1;spacingLeft=6;spacing=0;resizable=0;" vertex="1" parent="1">
          <mxGeometry x="540" y="250" width="180" height="90" as="geometry" />
        </mxCell>
        <mxCell id="w81ejf7eT8TpBvamM4rY-11" value="" style="shape=tableRow;horizontal=0;startSize=0;swimlaneHead=0;swimlaneBody=0;strokeColor=inherit;top=0;left=0;bottom=0;right=0;collapsible=0;dropTarget=0;fillColor=none;points=[[0,0.5],[1,0.5]];portConstraint=eastwest;fontSize=12;" vertex="1" parent="w81ejf7eT8TpBvamM4rY-10">
          <mxGeometry y="30" width="180" height="20" as="geometry" />
        </mxCell>
        <mxCell id="w81ejf7eT8TpBvamM4rY-12" value="Found without Error" style="shape=partialRectangle;html=1;whiteSpace=wrap;connectable=0;strokeColor=#3A5431;overflow=hidden;fillColor=#6d8764;top=0;left=0;bottom=0;right=0;pointerEvents=1;fontSize=12;align=left;fontColor=#ffffff;spacingLeft=10;spacingRight=4;" vertex="1" parent="w81ejf7eT8TpBvamM4rY-11">
          <mxGeometry width="180" height="20" as="geometry">
            <mxRectangle width="180" height="20" as="alternateBounds" />
          </mxGeometry>
        </mxCell>
        <mxCell id="w81ejf7eT8TpBvamM4rY-13" value="" style="shape=tableRow;horizontal=0;startSize=0;swimlaneHead=0;swimlaneBody=0;strokeColor=inherit;top=0;left=0;bottom=0;right=0;collapsible=0;dropTarget=0;fillColor=none;points=[[0,0.5],[1,0.5]];portConstraint=eastwest;fontSize=12;" vertex="1" parent="w81ejf7eT8TpBvamM4rY-10">
          <mxGeometry y="50" width="180" height="20" as="geometry" />
        </mxCell>
        <mxCell id="w81ejf7eT8TpBvamM4rY-14" value="Not Found" style="shape=partialRectangle;html=1;whiteSpace=wrap;connectable=0;strokeColor=#B20000;overflow=hidden;fillColor=#e51400;top=0;left=0;bottom=0;right=0;pointerEvents=1;fontSize=12;align=left;fontColor=#ffffff;spacingLeft=10;spacingRight=4;" vertex="1" parent="w81ejf7eT8TpBvamM4rY-13">
          <mxGeometry width="180" height="20" as="geometry">
            <mxRectangle width="180" height="20" as="alternateBounds" />
          </mxGeometry>
        </mxCell>
        <mxCell id="w81ejf7eT8TpBvamM4rY-15" value="" style="shape=tableRow;horizontal=0;startSize=0;swimlaneHead=0;swimlaneBody=0;strokeColor=#B09500;top=0;left=0;bottom=0;right=0;collapsible=0;dropTarget=0;fillColor=#e3c800;points=[[0,0.5],[1,0.5]];portConstraint=eastwest;fontSize=12;fontColor=#000000;" vertex="1" parent="w81ejf7eT8TpBvamM4rY-10">
          <mxGeometry y="70" width="180" height="20" as="geometry" />
        </mxCell>
        <mxCell id="w81ejf7eT8TpBvamM4rY-16" value="Found with Error" style="shape=partialRectangle;html=1;whiteSpace=wrap;connectable=0;strokeColor=#B09500;overflow=hidden;fillColor=#e3c800;top=0;left=0;bottom=0;right=0;pointerEvents=1;fontSize=12;align=left;fontColor=#000000;spacingLeft=10;spacingRight=4;" vertex="1" parent="w81ejf7eT8TpBvamM4rY-15">
          <mxGeometry width="180" height="20" as="geometry">
            <mxRectangle width="180" height="20" as="alternateBounds" />
          </mxGeometry>
        </mxCell>
        <mxCell id="w81ejf7eT8TpBvamM4rY-17" value="" style="group" vertex="1" connectable="0" parent="1">
          <mxGeometry x="352.5" y="320" width="65" height="30" as="geometry" />
        </mxCell>
        <mxCell id="w81ejf7eT8TpBvamM4rY-18" value="" style="rounded=1;whiteSpace=wrap;html=1;" vertex="1" parent="w81ejf7eT8TpBvamM4rY-17">
          <mxGeometry x="12.5" y="5" width="40" height="20" as="geometry" />
        </mxCell>
        <mxCell id="w81ejf7eT8TpBvamM4rY-19" value="Node 1" style="text;html=1;strokeColor=none;fillColor=none;align=center;verticalAlign=middle;whiteSpace=wrap;rounded=0;" vertex="1" parent="w81ejf7eT8TpBvamM4rY-17">
          <mxGeometry width="65" height="30" as="geometry" />
        </mxCell>
      </root>
    </mxGraphModel>
  </diagram>
</mxfile>
